<?xml version="1.0" encoding="utf-8"?>
<!-- Generator: Adobe Illustrator 24.0.1, SVG Export Plug-In . SVG Version: 6.00 Build 0)  -->
<svg version="1.1" id="Layer_1" xmlns="http://www.w3.org/2000/svg" xmlns:xlink="http://www.w3.org/1999/xlink" x="0px" y="0px"
	 viewBox="0 0 260.1 163.6" style="enable-background:new 0 0 260.1 163.6;" xml:space="preserve">
<style type="text/css">
	.st0{fill:#29427B;}
	.st1{fill:#00A5F1;}
	.st2{fill:#08BFFF;}
	.st3{fill:#366EB2;}
	.st4{fill:#C7CCFF;}
	.st5{fill:#FFFFFF;}
	.st6{fill:#FDCF00;}
	.st7{fill:#F26F05;}
	.st8{fill:#DB5E00;}
	.st9{fill:#0094EF;}
	.st10{fill:#FFB164;}
	.st11{fill:#727ADD;}
	.st12{fill:#FDC78B;}
	.st13{fill:#132F44;}
	.st14{fill:#1C3A54;}
	.st15{fill:#F9BA2D;}
	.st16{fill:#FFDF5A;}
</style>
<g>
	<g>
		<g>
			<rect x="124.7" y="126.8" class="st0" width="25.7" height="20.6"/>
			<g>
				<path class="st0" d="M70.1,123.3H205V60.5c0-12-9.7-21.7-21.7-21.7H91.8c-12,0-21.7,9.7-21.7,21.7V123.3z"/>
				<g>
					<rect x="76.8" y="45.7" class="st1" width="121.6" height="72.7"/>
				</g>
				<path class="st2" d="M90.5,111.1h10.3c3.9,0,7.1-3.2,7.1-7.1V92.5c0-3.9-3.2-7.1-7.1-7.1H90.5c-3.9,0-7.1,3.2-7.1,7.1V104
					C83.3,107.9,86.5,111.1,90.5,111.1z"/>
				<path class="st3" d="M205,123.3v7.5c0,3.6-2.9,6.5-6.5,6.5H76.6c-3.6,0-6.5-2.9-6.5-6.5v-7.5L205,123.3L205,123.3z"/>
			</g>
			<g>
				<path class="st2" d="M112.5,89.4h77.2c1.1,0,2-0.9,2-2l0,0c0-1.1-0.9-2-2-2h-77.2c-1.1,0-2,0.9-2,2l0,0
					C110.5,88.4,111.4,89.4,112.5,89.4z"/>
				<path class="st4" d="M112.5,96.6h77.2c1.1,0,2-0.9,2-2l0,0c0-1.1-0.9-2-2-2h-77.2c-1.1,0-2,0.9-2,2l0,0
					C110.5,95.7,111.4,96.6,112.5,96.6z"/>
				<path class="st2" d="M112.5,103.8h77.2c1.1,0,2-0.9,2-2l0,0c0-1.1-0.9-2-2-2h-77.2c-1.1,0-2,0.9-2,2l0,0
					C110.5,103,111.4,103.8,112.5,103.8z"/>
				<path class="st2" d="M112.5,111.1h77.2c1.1,0,2-0.9,2-2l0,0c0-1.1-0.9-2-2-2h-77.2c-1.1,0-2,0.9-2,2l0,0
					C110.5,110.2,111.4,111.1,112.5,111.1z"/>
			</g>
			<g>
				<path class="st2" d="M134.9,80.9h50.9c3.3,0,6-2.7,6-6V55c0-3.3-2.7-6-6-6h-50.9c-3.3,0-6,2.7-6,6V75
					C128.9,78.2,131.6,80.9,134.9,80.9z"/>
				<path class="st2" d="M89.3,80.9h29.5c3.3,0,6-2.7,6-6V55c0-3.3-2.7-6-6-6H89.3c-3.3,0-6,2.7-6,6V75C83.3,78.2,86,80.9,89.3,80.9
					z"/>
			</g>
			<path class="st3" d="M104.5,151.3h66l0,0c0-3.2-2.6-5.9-5.9-5.9h-54.3C107.1,145.4,104.5,148.1,104.5,151.3L104.5,151.3z"/>
			<ellipse class="st5" cx="137.6" cy="130.3" rx="2.5" ry="2.5"/>
			<g>
				
					<rect x="68.1" y="65.1" transform="matrix(0.9894 -0.145 0.145 0.9894 -8.653 20.7021)" class="st6" width="139.2" height="9.2"/>
				<g>
					<g>
						<g>
							<polygon class="st0" points="205.7,64.4 197.3,65.6 186.9,57.8 195.3,56.6 							"/>
						</g>
						<g>
							<polygon class="st0" points="163.1,61.3 171.5,60.1 181.9,67.9 173.5,69.1 							"/>
						</g>
						<g>
							<polygon class="st0" points="139.3,64.8 147.8,63.6 158.1,71.4 149.6,72.6 							"/>
						</g>
						<g>
							<polygon class="st0" points="115.5,68.3 124,67.1 134.3,74.9 125.8,76.1 							"/>
						</g>
						<g>
							<polygon class="st0" points="91.6,71.8 100.1,70.5 110.5,78.3 102,79.6 							"/>
						</g>
						<g>
							<polygon class="st0" points="70.1,72 68.1,75.2 71.3,75.9 							"/>
						</g>
						<g>
							<polygon class="st0" points="68.2,75.5 68.1,75.2 76.3,74 86.7,81.9 78.2,83.1 							"/>
						</g>
					</g>
				</g>
			</g>
			<g>
				
					<rect x="68.5" y="91.8" transform="matrix(0.9992 -3.981261e-02 3.981261e-02 0.9992 -3.7263 5.6083)" class="st6" width="140.9" height="9.2"/>
				<g>
					<g>
						<g>
							<polygon class="st0" points="208,98.2 199.4,98.5 189.7,89.7 198.4,89.4 							"/>
						</g>
						<g>
							<polygon class="st0" points="165.4,90.7 174.1,90.3 183.7,99.2 175,99.5 							"/>
						</g>
						<g>
							<polygon class="st0" points="141.1,91.6 149.8,91.3 159.4,100.2 150.7,100.5 							"/>
						</g>
						<g>
							<polygon class="st0" points="116.8,92.6 125.4,92.3 135,101.1 126.4,101.5 							"/>
						</g>
						<g>
							<polygon class="st0" points="92.4,93.6 101.1,93.3 110.7,102.1 102,102.5 							"/>
						</g>
						<g>
							<polygon class="st0" points="68.4,94.8 68.4,94.5 76.8,94.2 86.4,103.1 77.7,103.4 							"/>
						</g>
					</g>
				</g>
			</g>
			<polygon class="st0" points="207.3,64.2 205,67.1 205,64.5 			"/>
			<polygon class="st0" points="209.6,98.2 205,101.5 205,98.4 			"/>
			<polygon class="st0" points="68.7,103.8 70.1,105.7 70.1,103.8 			"/>
		</g>
		<g>
			<path class="st7" d="M199.2,121.9l9.3,27.5c0,2.1-22.3,2.1-22.3,0l9.3-27.5C196.1,120.1,198.6,120.1,199.2,121.9z"/>
			<path class="st5" d="M201.7,129.2l1.9,5.5c-4.1,0.2-8.2,0.2-12.4,0l1.9-5.5C195.9,129.3,198.8,129.3,201.7,129.2z"/>
			<path class="st5" d="M205.1,139.2l1.9,5.5c-6.4,0.6-12.8,0.6-19.2,0l1.9-5.5C194.8,139.7,199.9,139.7,205.1,139.2z"/>
			<path class="st8" d="M182.8,151.2H212l0,0c0-1.2-1-2.2-2.2-2.2h-24.9C183.7,149.1,182.8,150,182.8,151.2L182.8,151.2z"/>
		</g>
		<g>
			<g>
				<g>
					<g>
						<polygon class="st9" points="51,148.2 49.1,148.2 34.5,65.4 36.4,65.4 						"/>
					</g>
					<g>
						<polygon class="st9" points="68.4,148.2 66.5,148.2 51.9,65.4 53.8,65.4 						"/>
					</g>
					<polygon class="st9" points="66.1,140.9 48.8,140.9 48.5,139.2 65.8,139.2 					"/>
					<polygon class="st9" points="64.3,130.4 46.9,130.4 46.6,128.7 64,128.7 					"/>
					<polygon class="st9" points="62.4,119.8 45,119.8 44.7,118.1 62.1,118.1 					"/>
					<polygon class="st9" points="60.6,109.3 43.2,109.3 42.9,107.6 60.2,107.6 					"/>
					<polygon class="st9" points="58.7,98.7 41.3,98.7 41,97 58.4,97 					"/>
					<polygon class="st9" points="56.9,88.2 39.4,88.2 39.1,86.5 56.6,86.5 					"/>
					<polygon class="st9" points="55,77.7 37.6,77.7 37.3,75.9 54.7,75.9 					"/>
					<polygon class="st9" points="53.1,67.1 35.8,67.1 35.5,65.4 52.8,65.4 					"/>
				</g>
			</g>
			<g>
				<g>
					<g>
						<polygon class="st1" points="37.3,148.2 39.1,148.2 53.8,65.4 51.9,65.4 						"/>
					</g>
					<g>
						<polygon class="st1" points="19.9,148.2 21.8,148.2 36.4,65.4 34.5,65.4 						"/>
					</g>
					<polygon class="st1" points="22.1,140.9 39.5,140.9 39.8,139.2 22.4,139.2 					"/>
					<polygon class="st1" points="24,130.4 41.4,130.4 41.6,128.7 24.3,128.7 					"/>
					<polygon class="st1" points="25.9,119.8 43.2,119.8 43.5,118.1 26.1,118.1 					"/>
					<polygon class="st1" points="27.7,109.3 45.1,109.3 45.4,107.6 28,107.6 					"/>
					<polygon class="st1" points="29.6,98.7 46.9,98.7 47.2,97 29.9,97 					"/>
					<polygon class="st1" points="31.4,88.2 48.8,88.2 49.1,86.5 31.7,86.5 					"/>
					<polygon class="st1" points="33.3,77.7 50.7,77.7 51,75.9 33.6,75.9 					"/>
					<polygon class="st1" points="35.1,67.1 52.5,67.1 52.8,65.4 35.4,65.4 					"/>
				</g>
			</g>
		</g>
		<g>
			<path class="st7" d="M16.5,134.3l9.3,27.5c0,2.1-22.3,2.1-22.3,0l9.3-27.5C13.3,132.5,15.8,132.5,16.5,134.3z"/>
			<path class="st5" d="M18.9,141.5l1.9,5.5c-4.1,0.2-8.2,0.2-12.4,0l1.9-5.5C13.1,141.7,16,141.7,18.9,141.5z"/>
			<path class="st5" d="M22.3,151.6l1.9,5.5c-6.4,0.6-12.8,0.6-19.2,0l1.9-5.5C12,152,17.2,152,22.3,151.6z"/>
			<path class="st8" d="M0,163.6h29.2l0,0c0-1.2-1-2.2-2.2-2.2H2.2C1,161.4,0,162.4,0,163.6L0,163.6z"/>
		</g>
		<g>
			<g>
				<g id="XMLID_80_">
					<g>
						<g id="XMLID_22_">
							<path class="st10" d="M69.8,34c0-0.2,0.5-1.8,0.6-1.9c0.1-0.1,1,0.1,2-1c2.6-3,4.1-6.8,6.8-10c0.1-2.9,0.3-4.8,0.3-4.8
								l3.9,0.5c0.3,3,0.3,6.6-0.3,7.1c-0.7,0.5-6.3,7.2-9.9,8.1c0,0.1-2.3,1.4-2.6,1.7C70.2,34,69.8,34.2,69.8,34z"/>
						</g>
					</g>
				</g>
				<g>
					<path class="st11" d="M68.8,35l8.5-4c0.1-0.1,0.2-0.3,0.1-0.4l0,0c-0.1-0.1-0.2-0.2-0.4-0.1l-7.4,3.4c-0.3,0.1-0.6,0-0.8-0.2
						L63.6,25c-0.1-0.2-0.3-0.2-0.5-0.1l0,0c-0.1,0.1-0.2,0.3-0.1,0.5L68.8,35z"/>
				</g>
				<g>
					<g>
						<g id="XMLID_93_">
							<path id="XMLID_96_" class="st12" d="M73.6,61.8c0.2,1.3,0.5,1.7,0.5,1.7c-0.1,1-0.8,0.9-1.8,0.5c0,0-0.7-1.9-0.7-2.6
								C71.6,60.8,73.6,61.8,73.6,61.8z"/>
							<path id="XMLID_95_" class="st13" d="M66.6,37.2c0.2-1.7,3.7-3.1,6.7-3.4l1.8,8.3c-0.4-0.1-0.7-0.2-0.7-0.2
								c1,7.3-1.5,10.4-0.3,20.2c-1.5,0.8-2.6,0.2-2.6,0.2C66.9,53.3,66,41.3,66.6,37.2z"/>
							<path id="XMLID_94_" class="st13" d="M70,64c-2,0.5-3.1,1.1-1,1.2c1.3,0,4.5,0.3,5.3,0.1s0.5-2.2,0.1-2.2
								c-0.2,0-0.4,0.6-0.8,0.8c-0.4,0.2-0.9-0.6-1.3-0.7S70.6,63.7,70,64z"/>
						</g>
						<g id="XMLID_89_">
							<path id="XMLID_92_" class="st12" d="M79.8,60.5c0.6,1.1,1,1.5,1,1.5l-1.6,1c0,0-1.2-1.6-1.4-2.3
								C77.6,60,79.8,60.5,79.8,60.5z"/>
							<path id="XMLID_91_" class="st14" d="M91.6,35.7c-0.5,3.5-2.5,5.3-4.5,5.3s-11.9,0-11.9,0c2.9,6.8,1.3,10.4,5.1,19.6
								c-1.2,1.2-2.5,0.8-2.5,0.8C71,53.9,67.7,41.7,67.2,37.6C66.7,33.6,80.4,31,80.4,31l5.9-0.4L91.6,35.7z"/>
							<path id="XMLID_90_" class="st14" d="M77.2,64c-1.5,0.1-2.5,1.1-0.7,1.1c0.6,0,1,0,1.5,0c0.5,0,3-1.8,3.5-2.6
								c0.5-0.7-1.1-2-1.4-1.7c-0.2,0.1,0,0.7-0.1,1.1c-0.2,0.4-1.1,0.1-1.5,0.3C78.2,62.4,77.7,63.9,77.2,64z"/>
						</g>
						<g id="XMLID_83_">
							<g id="XMLID_84_">
								<path id="XMLID_85_" class="st2" d="M82.6,12.7c1.6,0.5,1.6,4,1.4,6.4c-1.8,0-3.6-0.2-4.9-0.8
									C79.4,15.2,80.8,12.1,82.6,12.7z"/>
							</g>
						</g>
						<path class="st14" d="M80.9,18.6c0,0-1.3-0.3-2-0.6l-0.1,1.1c0,0,1.1,0.5,1.9,0.6L80.9,18.6z"/>
						<g id="XMLID_81_">
							<path id="XMLID_82_" class="st2" d="M84.4,10.8c1.1,0,2.7,0.5,4.3,2.8c1.5,2.3,4.7,15.6,3.2,22.7c-4.9-1.1-5.6-5.2-12.2-5.2
								c0-13.6,1.8-17.2,2.2-18.2C82.2,11.9,83.8,10.7,84.4,10.8z"/>
						</g>
						<g id="XMLID_73_">
							<g id="XMLID_75_">
								<g id="XMLID_78_">
									<path id="XMLID_79_" class="st12" d="M70.5,32.2c0.1-0.2,1.1-2.1,1.1-2.1c0.6-0.5,0.8,0,2-0.9c3.4-2.8,5.3-4.9,8.8-7.9
										c0.7-3.2,1.3-5.1,1.3-5.1l4.1,1.3c-0.2,3.3-0.8,7.2-1.7,7.7c-0.9,0.4-7.8,5-11.9,5.3c0,0.2-2.5,1.5-2.8,1.8
										C71,32.4,70.4,32.4,70.5,32.2z"/>
								</g>
								<g id="XMLID_76_">
									<path id="XMLID_77_" class="st2" d="M86.6,13.3c1.6,0.6,1.4,4.1,1,6.5c-1.8,0-3.5-0.4-4.9-1.1
										C83.4,15.7,84.9,12.7,86.6,13.3z"/>
								</g>
							</g>
						</g>
						<g>
							<path id="XMLID_68_" class="st10" d="M81.9,13.5c0.8,1.5,3.9-0.1,3-1.7l-2-2.9l-2.4,1.3L81.9,13.5z"/>
							<path id="XMLID_57_" class="st12" d="M81.3,12.1L81.3,12.1c2.1-0.4,3.4-2.5,2.9-4.5l-0.3-1.7c-0.4-2.1-2.5-3.4-4.5-2.9l0,0
								c-2.1,0.4-3.4,2.5-2.9,4.5l0.3,1.7C77.3,11.3,79.3,12.6,81.3,12.1z"/>
							<path class="st14" d="M76.1,4c0.4-0.8,0.9-1.6,1.4-2.5c0.2,0.2,0.5,0.4,0.6,0.7l2.8-0.5c0.8-0.1,1.5,0.4,1.7,1.1l0,0.3
								c0.8-0.1,1.5,0.4,1.7,1.1l1,5.7c0.1,0.5-0.2,1-0.8,1.1c-0.6,0.1-1.2-0.4-1.1-1l0.2-2c-0.1-0.8-0.7-1.4-1.5-1.5
								c-0.3,0-0.6-0.3-0.7-0.7c-0.1-0.4-0.5-0.8-1-0.7L76.3,6l0,0c-0.4,0.1-0.9,0-1.3-0.1C75.4,5.3,75.7,4.6,76.1,4z"/>
							<circle id="XMLID_33_" class="st12" cx="83" cy="7.6" r="1.2"/>
						</g>
					</g>
					<g>
						<path class="st15" d="M79.2,0.2c-2.4,0.4-4.1,2.6-4,4.9c-0.8,0.4-1.3,0.8-1.3,1.2c0.1,0.8,2.7,1,5.7,0.4s5.3-1.6,5.2-2.4
							C84.4,1.8,81.8-0.2,79.2,0.2z"/>
						<path class="st16" d="M84.8,4c-2.1,1.8-5,2.4-7.8,2.5c-2.7,0.1-2.7-0.7-2.7-0.8c-0.3,0.2-0.4,0.5-0.4,0.7
							c0.1,0.8,2.7,1,5.7,0.4s5.3-1.6,5.2-2.4C84.9,4.3,84.8,4.1,84.8,4z"/>
						<path class="st16" d="M76,5.2c0,0-0.9-2.8,1.2-4.4c2.1-1.5,3.9-0.5,3.9-0.5s-2.6-0.1-3.7,1.1c-1,1.3-0.5,3.7-0.5,3.7
							S76.3,5.2,76,5.2z"/>
					</g>
				</g>
			</g>
			<path class="st14" d="M87.9,19.9c0,0-3-0.1-5.2-1.3l-0.3,1.5c0,0,4,1.2,5.4,1L87.9,19.9z"/>
		</g>
		<g>
			<g>
				<g>
					<g>
						<polygon class="st14" points="238.7,143.9 244.5,143.9 252.7,112.8 246.9,112.8 						"/>
					</g>
					<g>
						<polygon class="st14" points="221,143.9 226.8,143.9 235,112.8 229.2,112.8 						"/>
					</g>
				</g>
			</g>
			<g>
				<polygon class="st0" points="239.8,143.9 233.9,143.9 229.6,112.8 235.4,112.8 				"/>
				<polygon class="st0" points="257.4,143.9 251.6,143.9 247.3,112.8 253.1,112.8 				"/>
			</g>
			<rect x="222.6" y="117" class="st7" width="37.5" height="7"/>
			<g>
				<polygon class="st5" points="225.2,124 233.3,124 240.3,117 232.2,117 				"/>
				<polygon class="st5" points="257,117 249,117 242,124 250,124 				"/>
			</g>
			<rect x="222.6" y="129.5" class="st7" width="37.5" height="7"/>
			<g>
				<polygon class="st5" points="225.2,136.5 233.3,136.5 240.3,129.5 232.2,129.5 				"/>
				<polygon class="st5" points="257,129.5 249,129.5 242,136.5 250,136.5 				"/>
			</g>
			<ellipse class="st0" cx="232.5" cy="111.3" rx="4.2" ry="4.2"/>
			<circle class="st15" cx="232.5" cy="111.3" r="2.6"/>
			<ellipse class="st0" cx="250.2" cy="111.3" rx="4.2" ry="4.2"/>
			<circle class="st15" cx="250.2" cy="111.3" r="2.6"/>
		</g>
	</g>
</g>
</svg>
