<?xml version="1.0" encoding="utf-8"?>
<!-- Generator: Adobe Illustrator 24.0.1, SVG Export Plug-In . SVG Version: 6.00 Build 0)  -->
<svg version="1.1" id="Layer_1" xmlns="http://www.w3.org/2000/svg" xmlns:xlink="http://www.w3.org/1999/xlink" x="0px" y="0px"
	 viewBox="0 0 504 144" style="enable-background:new 0 0 504 144;" xml:space="preserve">
<style type="text/css">
	.st0{fill:#FFFFFF;}
</style>
<g>
	<g>
		<path class="st0" d="M175.2,29.7v8.5c0,2.3,0.8,4.2,3.2,4.7c1.3,0.2,1.6,0.5,1.6,1.1s-0.5,1-1.4,1c-1.4,0-5.6-0.6-7.4-0.6
			c-1.8,0-6.1,0.6-7.4,0.6c-0.8,0-1.4-0.4-1.4-1s0.3-0.9,1.6-1.1c2.3-0.4,3.2-2.4,3.2-4.7V8.9c0-2.3-0.9-4.3-3.2-4.7
			c-1.3-0.2-1.6-0.5-1.6-1.1s0.5-1,1.4-1c1.4,0,5.6,0.6,7.4,0.6c5.7,0,11.2-0.6,15.1-0.6c8,0,13.9,3.8,13.9,11.7
			c0,6.6-4.5,10.7-10.4,12.5c-0.8,0.2-1.6,0.5-2.5,0.6c1.4,0.4,3.3,1.5,5.2,4.5c3.2,5.1,6.7,10.3,12,11.1c0.7,0.1,1.1,0.4,1.1,1
			c0,0.8-1.4,1.5-5.1,1.5c-3.7,0-8.6-0.5-11.3-4.7c-4.4-6.8-6.4-11.4-9.1-12.6c-1.3,0.1-2.5,0.1-3.6,0.1S175.2,28.5,175.2,29.7z
			 M175.2,22.8c0,1.5,0.4,1.9,1.9,1.9c3.4,0,4.5-0.1,7.7-0.9c3.8-1,7.2-4.1,7.2-10.2c0-5.4-3.2-8.7-10.3-8.7c-5.1,0-6.5,1.1-6.5,2.8
			L175.2,22.8L175.2,22.8z"/>
		<path class="st0" d="M222.5,29.7v10.2c0,1.3,1.2,2.1,2.4,2.1c0.5,0,6.9,0.3,10.2-0.6c3.3-0.8,5.7-3,8-6.8c0.5-0.8,0.8-1.2,1.4-1.2
			c0.5,0,0.8,0.3,0.8,1c0,0.8-2.4,6.3-2.4,8.8c0,1.3-0.6,2-1.7,2c-1.3,0-7.5-0.6-23.1-0.6c-1.5,0-4.6,0.5-5.8,0.5
			c-0.7,0-1.2-0.2-1.2-0.8c0-0.5,0.2-0.7,1.4-0.9c1.9-0.4,2.7-2.1,2.7-4v-25c0-1.9-0.8-3.6-2.7-4c-1.2-0.2-1.4-0.4-1.4-0.9
			c0-0.7,0.5-0.9,1.2-0.9s4.1,0.3,9,0.3c15.6,0,16.8-0.3,18.1-0.3c1.2,0,1.7,0.7,1.7,1.9c0,2.5,1.2,6.8,1.2,7.6c0,0.6-0.4,1-0.8,1
			c-0.7,0-1-0.6-1.3-1.4c-2.1-4.1-4.3-6.4-12.7-6.4c-4.3,0-5,1-5,2.4v9.8c0,1.3,0.3,1.6,1.6,1.6c2.9,0,6.9,0.5,9.8-1.1
			c2.1-1.2,2.6-3.1,3.3-3.1c0.5,0,0.8,0.3,0.8,0.8s-0.6,1.8-0.6,4.2s0.7,4.7,0.7,5.5c0,0.6-0.3,1-0.7,1c-0.8,0-1.5-2.2-3-3.2
			c-1.6-1.1-2.7-0.8-4.6-0.8C223.1,28.2,222.5,28.2,222.5,29.7z"/>
		<path class="st0" d="M282.1,15.1c-0.2-2.3-0.9-4.2-3.3-4.7c-1.2-0.3-1.4-0.5-1.4-0.9c0-0.5,0.5-0.7,1.2-0.7c1.4,0,3.9,0.4,5.2,0.4
			c1.3,0,3.8-0.4,5.2-0.4c0.7,0,1.1,0.2,1.1,0.7c0,0.4-0.1,0.6-1.4,0.9c-2.4,0.6-3.1,2.5-3.3,4.7c-0.3,4.2-0.3,24.9-0.3,27.4
			c0,1.1-0.6,3.1-2.3,3.1c-1.2,0-1.8-0.7-2.6-1.6c-1.2-1.4-23.5-27.3-23.5-27.3s0.1,17.8,0.4,22c0.2,2.2,0.9,4.2,3.3,4.7
			c1.2,0.3,1.4,0.5,1.4,0.9c0,0.6-0.5,0.8-1.1,0.8c-1.5,0-4-0.5-5.3-0.5s-3.8,0.5-5.2,0.5c-0.7,0-1.1-0.2-1.1-0.8
			c0-0.4,0.2-0.6,1.4-0.9c2.4-0.5,3.1-2.5,3.3-4.7c0.3-4.2,0.2-22.9,0.2-24.8s-0.7-3-2.7-3.4c-1.1-0.2-1.4-0.5-1.4-1
			s0.4-0.8,1.1-0.8c1.1,0,3.3,0.5,4.3,0.5c2.1,0,3.6-0.2,4.7-0.2s1.5,0.3,2.5,1.9c2.1,3.3,19.9,23.8,19.9,23.8
			S282.5,19.2,282.1,15.1z"/>
		<path class="st0" d="M313,9.8c1,2.4,9.4,21.9,13,29.4c1,2,1.8,3.7,3.8,4.1c1.2,0.2,1.4,0.3,1.4,0.9c0,0.7-0.5,0.8-1.5,0.8
			c-1.2,0-4.5-0.2-8.2-0.2c-1.6,0-3.8,0.1-4.7,0.1c-0.6,0-0.9-0.3-0.9-0.7s0.2-0.7,0.8-0.8c0.7-0.1,1.6-0.5,1.6-1.2
			c0-0.5-1-3.4-2.4-6.9H301c-1,2.8-1.6,5.1-1.6,6c0,1.3,0.8,1.9,2,2.1c0.6,0.1,0.8,0.4,0.8,0.8s-0.3,0.7-1,0.7c-1,0-2.5-0.1-4.2-0.1
			c-3.8,0-4.9,0.2-6.3,0.2c-0.7,0-1.2-0.2-1.2-0.8s0.2-0.7,1.4-0.9c1.9-0.4,2.7-1.5,3.7-3.4c2-3.8,7.8-16.7,14.2-30
			c0.5-1.1,0.8-1.7,2.1-1.7C312.1,8.1,312.5,8.7,313,9.8z M302.2,32.3h12.5c-2.4-6.1-5.3-12.8-5.8-13.6c-0.2-0.3-0.3-0.5-0.6-0.5
			s-0.5,0.3-0.6,0.6C306.2,22,304,27.5,302.2,32.3z"/>
		<path class="st0" d="M340.2,13.4c0-1.8-0.8-2-2.3-2c-2.7,0-6.2,2.1-8.4,6.2c-0.4,0.7-0.6,1.4-1.4,1.4c-0.4,0-0.8-0.3-0.8-1
			c0-0.8,1.2-5.1,1.2-7.6c0-1.3,0.6-2,1.7-2S339.7,9,343.7,9c3.9,0,12.3-0.6,13.4-0.6c1.2,0,1.7,0.7,1.7,2c0,2.5,1.2,6.8,1.2,7.6
			c0,0.6-0.4,1-0.8,1c-0.7,0-1-0.6-1.4-1.4c-2.1-4.1-5.6-6.2-8.4-6.2c-1.5,0-2.3,0.2-2.3,2v25.9c0,1.9,0.7,3.6,2.7,4
			c1.1,0.2,1.4,0.4,1.4,1c0,0.5-0.4,0.8-1.1,0.8c-1.1,0-5-0.5-6.5-0.5c-1.6,0-5.5,0.5-6.7,0.5c-0.7,0-1.1-0.3-1.1-0.8
			c0-0.6,0.3-0.8,1.4-1c1.9-0.3,2.7-2.1,2.7-4V13.4H340.2z"/>
		<path class="st0" d="M384.2,8.1c12.1,0,21.1,7,21.1,18.8s-9,18.7-21.1,18.7s-21-6.9-21-18.7S372.1,8.1,384.2,8.1z M384.2,42.9
			c7.1,0,12.8-6.4,12.8-16.1s-5.8-16.2-12.8-16.2s-12.8,6.4-12.8,16.2S377.2,42.9,384.2,42.9z"/>
		<path class="st0" d="M175.2,94.7c0,2.3,0.8,4.2,3.2,4.7c1.3,0.2,1.6,0.5,1.6,1.1s-0.5,1-1.4,1c-1.4,0-5.6-0.6-7.4-0.6
			c-1.8,0-6.1,0.6-7.4,0.6c-0.8,0-1.4-0.4-1.4-1s0.3-0.9,1.6-1.1c2.3-0.4,3.2-2.4,3.2-4.7V65.4c0-2.3-0.9-4.2-3.2-4.7
			c-1.5-0.3-1.6-0.5-1.6-1.1c0-0.8,0.6-1,1.4-1c0.8,0,4.9,0.3,10.6,0.3c18.4,0,20.2-0.4,21.7-0.4c1.4,0,2,0.8,2,2.3
			c0,2.9,1.4,8,1.4,8.9c0,0.7-0.5,1.1-1,1.1c-0.8,0-1.1-0.7-1.6-1.6c-2.5-4.8-5.5-7.9-15.3-7.9c-5.1,0-6.5,1.1-6.5,2.8v12.1
			c0,1.5,0.4,1.9,1.9,1.9c3.4,0,7.1,0.4,10.4-1.5c2.5-1.5,3.1-3.7,3.9-3.7c0.5,0,0.9,0.3,0.9,1c0,0.6-0.6,2.1-0.6,5s0.8,5.5,0.8,6.4
			c0,0.7-0.4,1.2-0.9,1.2c-0.9,0-1.7-2.6-3.6-3.8c-1.9-1.2-3.2-1.6-5.5-1.6c-6.4,0-7.4,0.6-7.4,2.3v11.3
			C175,94.7,175.2,94.7,175.2,94.7z"/>
		<path class="st0" d="M219.2,66.2c1,2.4,9.4,21.9,13,29.4c1,2,1.8,3.7,3.8,4.1c1.2,0.2,1.4,0.3,1.4,0.9c0,0.7-0.5,0.8-1.5,0.8
			c-1.2,0-4.5-0.2-8.2-0.2c-1.6,0-3.8,0.1-4.7,0.1c-0.6,0-0.9-0.3-0.9-0.7c0-0.4,0.2-0.7,0.8-0.8c0.7-0.1,1.6-0.5,1.6-1.2
			c0-0.5-1-3.4-2.4-6.9h-14.8c-1,2.8-1.6,5.1-1.6,6c0,1.3,0.8,1.9,2,2.1c0.6,0.1,0.8,0.4,0.8,0.8s-0.3,0.7-1,0.7
			c-1,0-2.5-0.1-4.2-0.1c-3.8,0-4.9,0.2-6.3,0.2c-0.7,0-1.2-0.2-1.2-0.8c0-0.6,0.2-0.7,1.4-0.9c1.9-0.4,2.7-1.5,3.7-3.4
			c2-3.8,7.8-16.7,14.2-30c0.5-1.1,0.8-1.7,2.1-1.7C218.3,64.6,218.7,65.2,219.2,66.2z M208.4,88.8h12.5c-2.4-6.1-5.3-12.8-5.8-13.6
			c-0.2-0.3-0.3-0.5-0.6-0.5s-0.5,0.3-0.6,0.6C212.5,78.5,210.2,84,208.4,88.8z"/>
		<path class="st0" d="M272.3,67.1c0,2.5,0.6,7,0.6,7.8c0,0.6-0.5,0.8-0.9,0.8c-0.7,0-1.1-0.9-1.5-1.7c-2.1-4.1-4.7-6.5-10.2-6.5
			c-6.4,0-12.6,3.6-12.6,17.2c0,10.6,6.7,14.2,12.7,14.2c9.8,0,13.3-7.5,13.9-7.5c0.7,0,1.7,0.7,1.7,1.5s-4.9,9.1-18.2,9.1
			c-8,0-19.7-4.6-19.7-17.7c0-14.8,12.8-19.8,22.4-19.8c4.6,0,6.5,1.1,7.8,1.1c1.2,0,2.1-0.5,2.8-0.5
			C271.9,65.3,272.3,65.8,272.3,67.1z"/>
		<path class="st0" d="M314,67.1c0,2.5,0.6,7,0.6,7.8c0,0.6-0.5,0.8-0.9,0.8c-0.7,0-1.1-0.9-1.5-1.7c-2.1-4.1-4.7-6.5-10.2-6.5
			c-6.4,0-12.6,3.6-12.6,17.2c0,10.6,6.7,14.2,12.7,14.2c9.8,0,13.3-7.5,13.9-7.5s1.7,0.7,1.7,1.5s-4.9,9.1-18.2,9.1
			c-8,0-19.7-4.6-19.7-17.7c0-14.8,12.8-19.8,22.4-19.8c4.6,0,6.5,1.1,7.8,1.1c1.2,0,2.1-0.5,2.8-0.5S314,65.8,314,67.1z"/>
		<path class="st0" d="M327,70.8c0-1.9-0.8-3.7-2.7-4c-1.1-0.2-1.4-0.4-1.4-1c0-0.5,0.5-0.8,1.1-0.8c1.2,0,5.1,0.5,6.7,0.5
			c1.5,0,5.4-0.5,6.5-0.5c0.7,0,1.1,0.3,1.1,0.8c0,0.6-0.3,0.8-1.4,1c-2,0.4-2.7,2.1-2.7,4v25c0,1.9,0.7,3.6,2.7,4
			c1.1,0.2,1.4,0.4,1.4,1c0,0.5-0.4,0.8-1.1,0.8c-1.1,0-5-0.5-6.5-0.5c-1.6,0-5.5,0.5-6.7,0.5c-0.7,0-1.1-0.3-1.1-0.8
			c0-0.6,0.3-0.8,1.4-1c1.9-0.3,2.7-2.1,2.7-4V70.8z"/>
		<path class="st0" d="M365.3,64.6c12.1,0,21.1,7,21.1,18.8s-9,18.7-21.1,18.7s-21-6.9-21-18.7S353.2,64.6,365.3,64.6z M365.3,99.4
			c7.1,0,12.8-6.4,12.8-16.1s-5.8-16.2-12.8-16.2s-12.8,6.4-12.8,16.2S358.3,99.4,365.3,99.4z"/>
		<path class="st0" d="M402.7,96.8c0,1.3,1.2,2.1,2.4,2.1c2.9,0,4.9,0,8.4-1c3.3-0.9,5.5-2.9,7.8-6.7c0.5-0.8,0.8-1.2,1.4-1.2
			c0.4,0,0.7,0.3,0.7,1c0,0.8-2.4,6.3-2.4,8.8c0,1.3-0.6,2-1.7,2c-1.3,0-5.2-0.6-20.8-0.6c-1.5,0-4.9,0.5-6,0.5
			c-0.7,0-1.2-0.2-1.2-0.8c0-0.5,0.2-0.7,1.4-0.9c1.9-0.4,2.7-2.1,2.7-4V71c0-1.9-0.8-3.6-2.7-4c-1.1-0.2-1.4-0.5-1.4-1
			s0.5-0.8,1.1-0.8c1.2,0,5.1,0.5,6.7,0.5c1.5,0,5.4-0.5,6.5-0.5c0.7,0,1.1,0.3,1.1,0.8s-0.3,0.7-1.4,1c-2,0.4-2.7,2-2.7,4v25.8
			H402.7z"/>
		<path class="st0" d="M439.4,96.8c0,1.3,1.2,2.1,2.4,2.1c2.9,0,4.9,0,8.4-1c3.3-0.9,5.5-2.9,7.8-6.7c0.5-0.8,0.8-1.2,1.4-1.2
			c0.4,0,0.7,0.3,0.7,1c0,0.8-2.4,6.3-2.4,8.8c0,1.3-0.6,2-1.7,2c-1.3,0-5.2-0.6-20.8-0.6c-1.5,0-4.9,0.5-6,0.5
			c-0.7,0-1.2-0.2-1.2-0.8c0-0.5,0.2-0.7,1.4-0.9c1.9-0.4,2.7-2.1,2.7-4V71c0-1.9-0.8-3.6-2.7-4c-1.1-0.2-1.4-0.5-1.4-1
			s0.5-0.8,1.1-0.8c1.2,0,5.1,0.5,6.7,0.5c1.5,0,5.4-0.5,6.5-0.5c0.7,0,1.1,0.3,1.1,0.8s-0.3,0.7-1.4,1c-2,0.4-2.7,2-2.7,4v25.8
			H439.4z"/>
		<path class="st0" d="M485.7,66.2c1,2.4,9.4,21.9,13,29.4c1,2,1.8,3.7,3.8,4.1c1.2,0.2,1.4,0.3,1.4,0.9c0,0.7-0.5,0.8-1.5,0.8
			c-1.2,0-4.5-0.2-8.2-0.2c-1.6,0-3.8,0.1-4.7,0.1c-0.6,0-0.9-0.3-0.9-0.7c0-0.4,0.2-0.7,0.8-0.8c0.7-0.1,1.6-0.5,1.6-1.2
			c0-0.5-1-3.4-2.4-6.9h-14.8c-1,2.8-1.6,5.1-1.6,6c0,1.3,0.8,1.9,2,2.1c0.6,0.1,0.8,0.4,0.8,0.8s-0.3,0.7-1,0.7
			c-1,0-2.5-0.1-4.2-0.1c-3.8,0-4.9,0.2-6.3,0.2c-0.7,0-1.2-0.2-1.2-0.8c0-0.6,0.2-0.7,1.4-0.9c1.9-0.4,2.7-1.5,3.7-3.4
			c2-3.8,7.8-16.7,14.2-30c0.5-1.1,0.8-1.7,2.1-1.7C484.8,64.6,485.2,65.2,485.7,66.2z M474.9,88.8h12.5c-2.4-6.1-5.3-12.8-5.8-13.6
			c-0.2-0.3-0.3-0.5-0.6-0.5s-0.5,0.3-0.6,0.6C479,78.5,476.7,84,474.9,88.8z"/>
	</g>
	<g>
		<path class="st0" d="M38.1,48c-12.5-0.2-25,3.7-35.1,11l-3,2.2l35.7,35.6L72.5,60C62.8,52.5,50.6,48.2,38.1,48z"/>
		<path class="st0" d="M82.9,138.9c7.1-9.9,10.9-21.6,11-33.8c0.1-13.3-4.2-25.7-12.3-35.8L44.8,106l35.9,35.9l0,0L82.9,138.9z"/>
		<path class="st0" d="M0,2.1v38.7c11-5.7,23.4-8.8,36-8.7c17.4,0.1,34.2,6.1,47.3,17.1l0,0l20.4-20.4l-7.2-7.2l35.1-11.8L119.9,45
			l-7.1-7.1L92.5,58.3l0.1,0.1c5.6,6.7,10,14.3,12.9,22.5c3,8.3,4.4,17,4.4,26c-0.1,8.6-1.5,17-4.3,25.1c-1.2,3.4-2.7,6.8-4.3,10
			h38.5V2.1H0z"/>
	</g>
	<g>
		<path class="st0" d="M175.6,137.4h-8.9l-1.8,4.2h-2.5l7.6-16.7h2.4l7.6,16.7h-2.5L175.6,137.4z M174.8,135.5l-3.6-8.2l-3.6,8.2
			H174.8z"/>
		<path class="st0" d="M182.4,124.9h7.1c5.4,0,9,3.4,9,8.4s-3.7,8.4-9,8.4h-7.1V124.9z M189.3,139.5c4.1,0,6.8-2.5,6.8-6.3
			s-2.7-6.3-6.8-6.3h-4.5v12.6H189.3z"/>
		<path class="st0" d="M216.2,124.9l-7.3,16.7h-2.4l-7.4-16.7h2.6l6,13.7l6.1-13.7C213.8,124.9,216.2,124.9,216.2,124.9z"/>
		<path class="st0" d="M216.8,133.2c0-4.9,3.8-8.6,8.9-8.6c5.1,0,8.9,3.6,8.9,8.6s-3.8,8.6-8.9,8.6S216.8,138.1,216.8,133.2z
			 M232.2,133.2c0-3.7-2.8-6.4-6.5-6.4c-3.8,0-6.5,2.7-6.5,6.4s2.8,6.4,6.5,6.4C229.4,139.7,232.2,136.9,232.2,133.2z"/>
		<path class="st0" d="M249.8,133.1h2.3v6.5c-1.7,1.4-4,2.1-6.3,2.1c-5.1,0-8.9-3.6-8.9-8.6s3.8-8.6,9-8.6c2.7,0,4.9,0.9,6.4,2.6
			l-1.5,1.5c-1.4-1.3-3-1.9-4.9-1.9c-3.9,0-6.7,2.7-6.7,6.4s2.8,6.4,6.6,6.4c1.4,0,2.7-0.3,3.9-1.1L249.8,133.1L249.8,133.1z"/>
		<path class="st0" d="M267.4,137.4h-8.9l-1.8,4.2h-2.5l7.6-16.7h2.4l7.6,16.7h-2.5L267.4,137.4z M266.5,135.5l-3.6-8.2l-3.6,8.2
			H266.5z"/>
		<path class="st0" d="M274.2,124.9h7.1c5.4,0,9,3.4,9,8.4s-3.7,8.4-9,8.4h-7.1V124.9z M281.1,139.5c4.1,0,6.8-2.5,6.8-6.3
			s-2.7-6.3-6.8-6.3h-4.5v12.6H281.1z"/>
		<path class="st0" d="M292.6,133.2c0-4.9,3.8-8.6,8.9-8.6s8.9,3.6,8.9,8.6s-3.8,8.6-8.9,8.6S292.6,138.1,292.6,133.2z M308,133.2
			c0-3.7-2.8-6.4-6.5-6.4c-3.8,0-6.5,2.7-6.5,6.4s2.8,6.4,6.5,6.4C305.2,139.7,308,136.9,308,133.2z"/>
		<path class="st0" d="M332.7,141.9l-2.2-2.2c-1.5,1.4-3.4,2.2-5.6,2.2c-3.4,0-5.9-1.8-5.9-4.4c0-2.1,1.2-3.5,4.1-5.1
			c-1.5-1.5-2-2.6-2-3.8c0-2.2,1.8-3.8,4.5-3.8c2.5,0,4.2,1.3,4.2,3.5c0,1.7-1,2.9-3.6,4.4l4.1,4.1c0.5-0.9,0.8-1.9,1-3l1.8,0.6
			c-0.3,1.5-0.8,2.8-1.5,3.8l2.2,2.2L332.7,141.9z M329.1,138.3l-4.8-4.7c-2.3,1.3-3.1,2.3-3.1,3.6c0,1.6,1.5,2.7,3.8,2.7
			C326.6,139.9,328.1,139.4,329.1,138.3z M323.2,128.4c0,0.9,0.3,1.5,1.7,2.9c2.2-1.2,2.9-2,2.9-3.1c0-1.1-0.8-1.8-2.2-1.8
			C324.1,126.4,323.2,127.2,323.2,128.4z"/>
		<path class="st0" d="M354,137.4h-8.9l-1.8,4.2h-2.5l7.6-16.7h2.4l7.6,16.7h-2.5L354,137.4z M353.1,135.5l-3.6-8.2l-3.6,8.2H353.1z
			"/>
		<path class="st0" d="M359.3,139.7l0.9-1.9c1.2,1.1,3.4,1.9,5.5,1.9c2.9,0,4.1-1.1,4.1-2.6c0-4.1-10.1-1.5-10.1-7.7
			c0-2.6,2-4.8,6.4-4.8c2,0,4,0.5,5.4,1.5l-0.8,1.9c-1.5-0.9-3.1-1.4-4.6-1.4c-2.8,0-4.1,1.2-4.1,2.7c0,4.1,10.1,1.5,10.1,7.7
			c0,2.6-2.1,4.8-6.5,4.8C363.1,141.8,360.6,140.9,359.3,139.7z"/>
		<path class="st0" d="M374.1,139.7l0.9-1.9c1.2,1.1,3.4,1.9,5.5,1.9c2.9,0,4.1-1.1,4.1-2.6c0-4.1-10.1-1.5-10.1-7.7
			c0-2.6,2-4.8,6.4-4.8c2,0,4,0.5,5.4,1.5l-0.8,1.9c-1.5-0.9-3.1-1.4-4.6-1.4c-2.8,0-4.1,1.2-4.1,2.7c0,4.1,10.1,1.5,10.1,7.7
			c0,2.6-2.1,4.8-6.5,4.8C378,141.8,375.5,140.9,374.1,139.7z"/>
		<path class="st0" d="M389.2,133.2c0-4.9,3.8-8.6,8.9-8.6s8.9,3.6,8.9,8.6s-3.8,8.6-8.9,8.6C392.9,141.8,389.2,138.1,389.2,133.2z
			 M404.6,133.2c0-3.7-2.8-6.4-6.5-6.4c-3.8,0-6.5,2.7-6.5,6.4s2.8,6.4,6.5,6.4C401.8,139.7,404.6,136.9,404.6,133.2z"/>
		<path class="st0" d="M409.2,133.2c0-5,3.8-8.6,8.9-8.6c2.6,0,4.8,0.9,6.4,2.6l-1.6,1.5c-1.3-1.4-2.9-2-4.7-2
			c-3.8,0-6.6,2.7-6.6,6.4s2.8,6.4,6.6,6.4c1.8,0,3.4-0.6,4.7-2l1.6,1.5c-1.5,1.7-3.8,2.6-6.4,2.6
			C413,141.8,409.2,138.2,409.2,133.2z"/>
		<path class="st0" d="M427.9,124.9h2.4v16.7h-2.4V124.9z"/>
		<path class="st0" d="M446,137.4h-8.9l-1.8,4.2h-2.5l7.6-16.7h2.4l7.6,16.7h-2.5L446,137.4z M445.1,135.5l-3.6-8.2l-3.6,8.2H445.1z
			"/>
		<path class="st0" d="M452.8,124.9h7.1c5.4,0,9,3.4,9,8.4s-3.7,8.4-9,8.4h-7.1V124.9z M459.7,139.5c4.1,0,6.8-2.5,6.8-6.3
			s-2.7-6.3-6.8-6.3h-4.5v12.6H459.7z"/>
		<path class="st0" d="M471.2,133.2c0-4.9,3.8-8.6,8.9-8.6s8.9,3.6,8.9,8.6s-3.8,8.6-8.9,8.6S471.2,138.1,471.2,133.2z M486.6,133.2
			c0-3.7-2.8-6.4-6.5-6.4c-3.8,0-6.5,2.7-6.5,6.4s2.8,6.4,6.5,6.4C483.8,139.7,486.6,136.9,486.6,133.2z"/>
		<path class="st0" d="M491.1,139.7l0.9-1.9c1.2,1.1,3.4,1.9,5.5,1.9c2.9,0,4.1-1.1,4.1-2.6c0-4.1-10.1-1.5-10.1-7.7
			c0-2.6,2-4.8,6.4-4.8c2,0,4,0.5,5.4,1.5l-0.8,1.9c-1.5-0.9-3.1-1.4-4.6-1.4c-2.8,0-4.1,1.2-4.1,2.7c0,4.1,10.1,1.5,10.1,7.7
			c0,2.6-2.1,4.8-6.5,4.8C495,141.8,492.5,140.9,491.1,139.7z"/>
	</g>
</g>
</svg>
