<?xml version="1.0" encoding="utf-8"?>
<!-- Generator: Adobe Illustrator 24.0.1, SVG Export Plug-In . SVG Version: 6.00 Build 0)  -->
<svg version="1.1" id="Layer_1" xmlns="http://www.w3.org/2000/svg" xmlns:xlink="http://www.w3.org/1999/xlink" x="0px" y="0px"
	 viewBox="0 0 261.17 72" style="enable-background:new 0 0 261.17 72;" xml:space="preserve">
<style type="text/css">
	.st0{fill:#FFFFFF;}
</style>
<g>
	<g>
		<path class="st0" d="M91.74,14.23v4.39c0,1.16,0.44,2.18,1.63,2.42c0.67,0.12,0.84,0.26,0.84,0.58c0,0.29-0.26,0.49-0.7,0.49
			c-0.7,0-2.88-0.29-3.81-0.29s-3.14,0.29-3.84,0.29c-0.44,0-0.7-0.2-0.7-0.49c0-0.32,0.17-0.47,0.84-0.58
			c1.19-0.2,1.66-1.25,1.66-2.42V3.49c0-1.16-0.47-2.21-1.66-2.42c-0.67-0.12-0.84-0.26-0.84-0.58c0-0.29,0.26-0.49,0.7-0.49
			c0.7,0,2.91,0.29,3.84,0.29C92.64,0.29,95.49,0,97.5,0c4.1,0,7.18,1.95,7.18,6.02c0,3.38-2.3,5.53-5.38,6.46
			c-0.44,0.12-0.84,0.23-1.28,0.32c0.7,0.2,1.69,0.76,2.7,2.33c1.66,2.62,3.46,5.33,6.16,5.73c0.35,0.06,0.55,0.2,0.55,0.49
			c0,0.44-0.73,0.79-2.65,0.79c-1.92,0-4.45-0.26-5.84-2.42c-2.27-3.49-3.29-5.88-4.71-6.52c-0.67,0.03-1.28,0.03-1.83,0.03
			C91.85,13.24,91.74,13.59,91.74,14.23z M91.74,10.65c0,0.79,0.2,0.96,0.96,0.96c1.74,0,2.33-0.06,3.95-0.47
			c1.98-0.52,3.72-2.1,3.72-5.27c0-2.79-1.63-4.48-5.29-4.48c-2.62,0-3.34,0.58-3.34,1.46V10.65z"/>
		<path class="st0" d="M116.13,14.2v5.27c0,0.67,0.61,1.08,1.25,1.08c0.26,0,3.55,0.15,5.26-0.29c1.69-0.41,2.94-1.54,4.13-3.49
			c0.26-0.44,0.44-0.61,0.7-0.61c0.23,0,0.41,0.17,0.41,0.49c0,0.41-1.22,3.26-1.22,4.51c0,0.67-0.29,1.02-0.9,1.02
			c-0.67,0-3.87-0.29-11.92-0.29c-0.79,0-2.36,0.23-2.97,0.23c-0.38,0-0.61-0.09-0.61-0.44c0-0.26,0.09-0.35,0.73-0.47
			c0.99-0.2,1.4-1.08,1.4-2.07V6.29c0-0.99-0.41-1.83-1.4-2.04c-0.64-0.12-0.73-0.2-0.73-0.47c0-0.35,0.23-0.47,0.61-0.47
			c0.38,0,2.12,0.15,4.62,0.15c8.05,0,8.66-0.17,9.33-0.17c0.61,0,0.9,0.35,0.9,0.99c0,1.28,0.61,3.49,0.61,3.9
			c0,0.32-0.2,0.49-0.44,0.49c-0.35,0-0.49-0.29-0.67-0.7c-1.1-2.1-2.21-3.32-6.54-3.32c-2.24,0-2.56,0.49-2.56,1.25v5.06
			c0,0.67,0.17,0.81,0.81,0.81c1.48,0,3.58,0.26,5.06-0.58c1.1-0.64,1.34-1.6,1.72-1.6c0.23,0,0.41,0.15,0.41,0.44
			c0,0.26-0.29,0.93-0.29,2.15c0,1.25,0.38,2.42,0.38,2.82c0,0.32-0.17,0.49-0.38,0.49c-0.41,0-0.76-1.13-1.57-1.66
			c-0.81-0.55-1.4-0.44-2.38-0.44C116.45,13.41,116.13,13.44,116.13,14.2z"/>
		<path class="st0" d="M146.87,6.66c-0.12-1.16-0.47-2.15-1.72-2.44c-0.64-0.15-0.73-0.26-0.73-0.47c0-0.26,0.23-0.38,0.61-0.38
			c0.73,0,2.03,0.2,2.7,0.2c0.67,0,1.98-0.2,2.7-0.2c0.38,0,0.58,0.12,0.58,0.38c0,0.2-0.06,0.32-0.7,0.47
			c-1.25,0.29-1.6,1.28-1.72,2.44c-0.17,2.15-0.15,12.83-0.15,14.14c0,0.55-0.29,1.6-1.19,1.6c-0.64,0-0.93-0.38-1.34-0.84
			c-0.64-0.73-12.1-14.05-12.1-14.05s0.03,9.17,0.2,11.32c0.09,1.13,0.47,2.15,1.69,2.42c0.64,0.15,0.73,0.26,0.73,0.47
			c0,0.29-0.23,0.41-0.58,0.41c-0.76,0-2.06-0.23-2.73-0.23s-1.95,0.23-2.7,0.23c-0.35,0-0.58-0.12-0.58-0.41
			c0-0.2,0.09-0.32,0.73-0.47c1.22-0.26,1.6-1.28,1.69-2.42c0.17-2.15,0.09-11.81,0.09-12.8s-0.38-1.57-1.4-1.75
			c-0.55-0.09-0.7-0.23-0.7-0.49c0-0.26,0.2-0.41,0.58-0.41c0.58,0,1.72,0.23,2.24,0.23c1.08,0,1.86-0.12,2.44-0.12
			c0.58,0,0.76,0.15,1.28,0.99c1.08,1.72,10.26,12.25,10.26,12.25S147.04,8.82,146.87,6.66z"/>
		<path class="st0" d="M162.75,3.93c0.49,1.22,4.83,11.26,6.72,15.16c0.49,1.05,0.93,1.92,1.95,2.12c0.64,0.12,0.73,0.17,0.73,0.47
			c0,0.35-0.26,0.44-0.76,0.44c-0.61,0-2.3-0.12-4.24-0.12c-0.84,0-1.95,0.06-2.44,0.06c-0.32,0-0.47-0.15-0.47-0.35
			s0.12-0.35,0.44-0.41c0.35-0.06,0.84-0.23,0.84-0.64c0-0.26-0.52-1.75-1.25-3.55h-7.65c-0.49,1.46-0.84,2.65-0.84,3.11
			c0,0.67,0.41,0.99,1.02,1.08c0.29,0.03,0.44,0.2,0.44,0.41s-0.17,0.35-0.49,0.35c-0.49,0-1.31-0.06-2.15-0.06
			c-1.95,0-2.5,0.12-3.26,0.12c-0.38,0-0.61-0.09-0.61-0.44c0-0.29,0.09-0.35,0.73-0.47c0.99-0.2,1.37-0.76,1.89-1.78
			c1.02-1.95,4.04-8.61,7.3-15.48c0.26-0.55,0.44-0.87,1.08-0.87C162.31,3.08,162.51,3.4,162.75,3.93z M157.19,15.57h6.46
			c-1.25-3.14-2.73-6.61-2.97-7.01c-0.09-0.17-0.15-0.26-0.29-0.26s-0.26,0.15-0.32,0.29C159.29,10.24,158.12,13.09,157.19,15.57z"
			/>
		<path class="st0" d="M176.76,5.82c0-0.93-0.41-1.05-1.16-1.05c-1.37,0-3.2,1.11-4.3,3.2c-0.2,0.38-0.32,0.7-0.7,0.7
			c-0.2,0-0.41-0.17-0.41-0.49c0-0.41,0.61-2.62,0.61-3.9c0-0.67,0.29-1.02,0.9-1.02c0.58,0,4.91,0.32,6.95,0.32
			c2.01,0,6.34-0.32,6.92-0.32c0.64,0,0.9,0.35,0.9,1.02c0,1.28,0.61,3.49,0.61,3.9c0,0.32-0.2,0.49-0.41,0.49
			c-0.38,0-0.49-0.32-0.7-0.7c-1.08-2.1-2.91-3.2-4.3-3.2c-0.76,0-1.16,0.12-1.16,1.05v13.33c0,0.99,0.38,1.86,1.4,2.07
			c0.55,0.09,0.7,0.2,0.7,0.49c0,0.23-0.2,0.41-0.58,0.41c-0.58,0-2.59-0.23-3.37-0.23c-0.81,0-2.82,0.23-3.43,0.23
			c-0.35,0-0.58-0.17-0.58-0.41c0-0.29,0.15-0.41,0.73-0.49c0.99-0.17,1.4-1.08,1.4-2.07V5.82z"/>
		<path class="st0" d="M199.47,3.08c6.25,0,10.87,3.61,10.87,9.69c0,6.08-4.62,9.66-10.87,9.66c-6.22,0-10.85-3.55-10.85-9.66
			C188.63,6.69,193.25,3.08,199.47,3.08z M199.47,21.01c3.63,0,6.6-3.29,6.6-8.29s-2.97-8.32-6.6-8.32c-3.61,0-6.57,3.32-6.57,8.32
			S195.87,21.01,199.47,21.01z"/>
		<path class="st0" d="M91.74,47.72c0,1.16,0.44,2.18,1.63,2.42c0.67,0.12,0.84,0.26,0.84,0.58c0,0.29-0.26,0.49-0.7,0.49
			c-0.7,0-2.88-0.29-3.81-0.29s-3.14,0.29-3.84,0.29c-0.44,0-0.7-0.2-0.7-0.49c0-0.32,0.17-0.47,0.84-0.58
			c1.19-0.2,1.66-1.25,1.66-2.42V32.59c0-1.16-0.47-2.18-1.66-2.42c-0.76-0.15-0.84-0.23-0.84-0.55c0-0.41,0.29-0.52,0.73-0.52
			c0.44,0,2.5,0.15,5.44,0.15c9.48,0,10.41-0.2,11.19-0.2c0.73,0,1.05,0.41,1.05,1.19c0,1.48,0.73,4.1,0.73,4.57
			c0,0.38-0.23,0.58-0.49,0.58c-0.44,0-0.58-0.35-0.81-0.81c-1.28-2.47-2.82-4.07-7.91-4.07c-2.62,0-3.34,0.58-3.34,1.46v6.26
			c0,0.79,0.2,0.96,0.96,0.96c1.74,0,3.63,0.2,5.38-0.79c1.31-0.76,1.6-1.89,2.04-1.89c0.26,0,0.47,0.17,0.47,0.49
			c0,0.32-0.32,1.11-0.32,2.56s0.44,2.82,0.44,3.29c0,0.38-0.2,0.61-0.47,0.61c-0.47,0-0.87-1.34-1.83-1.98
			c-0.96-0.64-1.63-0.84-2.82-0.84c-3.31,0-3.84,0.29-3.84,1.16V47.72z"/>
		<path class="st0" d="M114.42,33.03c0.49,1.22,4.83,11.26,6.72,15.16c0.49,1.05,0.93,1.92,1.95,2.12c0.64,0.12,0.73,0.17,0.73,0.47
			c0,0.35-0.26,0.44-0.76,0.44c-0.61,0-2.3-0.12-4.25-0.12c-0.84,0-1.95,0.06-2.44,0.06c-0.32,0-0.47-0.15-0.47-0.35
			c0-0.2,0.12-0.35,0.44-0.41c0.35-0.06,0.84-0.23,0.84-0.64c0-0.26-0.52-1.75-1.25-3.55h-7.65c-0.49,1.45-0.84,2.65-0.84,3.11
			c0,0.67,0.41,0.99,1.02,1.08c0.29,0.03,0.44,0.2,0.44,0.41c0,0.2-0.17,0.35-0.49,0.35c-0.49,0-1.31-0.06-2.15-0.06
			c-1.95,0-2.5,0.12-3.26,0.12c-0.38,0-0.61-0.09-0.61-0.44c0-0.29,0.09-0.35,0.73-0.47c0.99-0.2,1.37-0.76,1.89-1.78
			c1.02-1.95,4.04-8.61,7.3-15.48c0.26-0.55,0.44-0.87,1.08-0.87C113.98,32.19,114.19,32.51,114.42,33.03z M108.87,44.67h6.45
			c-1.25-3.14-2.73-6.61-2.97-7.01c-0.09-0.17-0.15-0.26-0.29-0.26s-0.26,0.15-0.32,0.29C110.96,39.34,109.8,42.2,108.87,44.67z"/>
		<path class="st0" d="M141.78,33.47c0,1.28,0.32,3.61,0.32,4.02c0,0.32-0.23,0.41-0.47,0.41c-0.38,0-0.55-0.47-0.76-0.87
			c-1.1-2.1-2.41-3.35-5.26-3.35c-3.31,0-6.48,1.86-6.48,8.85c0,5.44,3.46,7.33,6.54,7.33c5.03,0,6.83-3.84,7.18-3.84
			c0.35,0,0.87,0.35,0.87,0.79c0,0.41-2.5,4.71-9.36,4.71c-4.13,0-10.15-2.39-10.15-9.11c0-7.62,6.57-10.18,11.54-10.18
			c2.38,0,3.37,0.55,4.01,0.55c0.61,0,1.1-0.23,1.45-0.23C141.58,32.53,141.78,32.8,141.78,33.47z"/>
		<path class="st0" d="M163.3,33.47c0,1.28,0.32,3.61,0.32,4.02c0,0.32-0.23,0.41-0.47,0.41c-0.38,0-0.55-0.47-0.76-0.87
			c-1.1-2.1-2.41-3.35-5.26-3.35c-3.31,0-6.48,1.86-6.48,8.85c0,5.44,3.46,7.33,6.54,7.33c5.03,0,6.83-3.84,7.18-3.84
			s0.87,0.35,0.87,0.79c0,0.41-2.5,4.71-9.36,4.71c-4.13,0-10.15-2.39-10.15-9.11c0-7.62,6.57-10.18,11.54-10.18
			c2.38,0,3.37,0.55,4.01,0.55c0.61,0,1.1-0.23,1.45-0.23S163.3,32.8,163.3,33.47z"/>
		<path class="st0" d="M169.99,35.39c0-0.99-0.41-1.89-1.4-2.07c-0.58-0.09-0.73-0.2-0.73-0.49c0-0.23,0.23-0.41,0.58-0.41
			c0.61,0,2.62,0.26,3.43,0.26c0.78,0,2.79-0.26,3.37-0.26c0.38,0,0.58,0.17,0.58,0.41c0,0.29-0.15,0.41-0.7,0.49
			c-1.02,0.2-1.4,1.08-1.4,2.07v12.86c0,0.99,0.38,1.86,1.4,2.07c0.55,0.09,0.7,0.2,0.7,0.49c0,0.23-0.2,0.41-0.58,0.41
			c-0.58,0-2.59-0.23-3.37-0.23c-0.81,0-2.82,0.23-3.43,0.23c-0.35,0-0.58-0.17-0.58-0.41c0-0.29,0.15-0.41,0.73-0.49
			c0.99-0.17,1.4-1.08,1.4-2.07V35.39z"/>
		<path class="st0" d="M189.73,32.19c6.25,0,10.87,3.61,10.87,9.69s-4.62,9.66-10.87,9.66c-6.22,0-10.85-3.55-10.85-9.66
			C178.88,35.79,183.51,32.19,189.73,32.19z M189.73,50.11c3.63,0,6.6-3.29,6.6-8.29s-2.97-8.32-6.6-8.32
			c-3.61,0-6.57,3.32-6.57,8.32S186.12,50.11,189.73,50.11z"/>
		<path class="st0" d="M209.01,48.77c0,0.67,0.61,1.08,1.25,1.08c1.48,0,2.5,0,4.33-0.52c1.72-0.47,2.82-1.51,4.01-3.46
			c0.26-0.44,0.44-0.61,0.73-0.61c0.2,0,0.38,0.17,0.38,0.49c0,0.41-1.22,3.26-1.22,4.51c0,0.67-0.29,1.02-0.9,1.02
			c-0.67,0-2.67-0.29-10.73-0.29c-0.78,0-2.5,0.23-3.11,0.23c-0.38,0-0.61-0.09-0.61-0.44c0-0.26,0.09-0.35,0.73-0.47
			c0.99-0.2,1.4-1.08,1.4-2.07V35.39c0-0.99-0.41-1.86-1.4-2.04c-0.58-0.12-0.73-0.23-0.73-0.49c0-0.26,0.23-0.44,0.58-0.44
			c0.61,0,2.62,0.26,3.43,0.26c0.78,0,2.79-0.26,3.37-0.26c0.38,0,0.58,0.17,0.58,0.44c0,0.26-0.15,0.38-0.7,0.49
			c-1.02,0.2-1.4,1.05-1.4,2.04V48.77z"/>
		<path class="st0" d="M227.88,48.77c0,0.67,0.61,1.08,1.25,1.08c1.48,0,2.5,0,4.33-0.52c1.72-0.47,2.82-1.51,4.01-3.46
			c0.26-0.44,0.44-0.61,0.73-0.61c0.2,0,0.38,0.17,0.38,0.49c0,0.41-1.22,3.26-1.22,4.51c0,0.67-0.29,1.02-0.9,1.02
			c-0.67,0-2.67-0.29-10.73-0.29c-0.79,0-2.5,0.23-3.11,0.23c-0.38,0-0.61-0.09-0.61-0.44c0-0.26,0.09-0.35,0.73-0.47
			c0.99-0.2,1.4-1.08,1.4-2.07V35.39c0-0.99-0.41-1.86-1.4-2.04c-0.58-0.12-0.73-0.23-0.73-0.49c0-0.26,0.23-0.44,0.58-0.44
			c0.61,0,2.62,0.26,3.43,0.26c0.79,0,2.79-0.26,3.37-0.26c0.38,0,0.58,0.17,0.58,0.44c0,0.26-0.15,0.38-0.7,0.49
			c-1.02,0.2-1.4,1.05-1.4,2.04V48.77z"/>
		<path class="st0" d="M251.75,33.03c0.49,1.22,4.83,11.26,6.72,15.16c0.49,1.05,0.93,1.92,1.95,2.12c0.64,0.12,0.73,0.17,0.73,0.47
			c0,0.35-0.26,0.44-0.76,0.44c-0.61,0-2.3-0.12-4.24-0.12c-0.84,0-1.95,0.06-2.44,0.06c-0.32,0-0.47-0.15-0.47-0.35
			c0-0.2,0.12-0.35,0.44-0.41c0.35-0.06,0.84-0.23,0.84-0.64c0-0.26-0.52-1.75-1.25-3.55h-7.65c-0.49,1.45-0.84,2.65-0.84,3.11
			c0,0.67,0.41,0.99,1.02,1.08c0.29,0.03,0.44,0.2,0.44,0.41c0,0.2-0.17,0.35-0.49,0.35c-0.49,0-1.31-0.06-2.15-0.06
			c-1.95,0-2.5,0.12-3.26,0.12c-0.38,0-0.61-0.09-0.61-0.44c0-0.29,0.09-0.35,0.73-0.47c0.99-0.2,1.37-0.76,1.89-1.78
			c1.02-1.95,4.04-8.61,7.3-15.48c0.26-0.55,0.44-0.87,1.08-0.87C251.32,32.19,251.52,32.51,251.75,33.03z M246.2,44.67h6.46
			c-1.25-3.14-2.73-6.61-2.97-7.01c-0.09-0.17-0.15-0.26-0.29-0.26s-0.26,0.15-0.32,0.29C248.29,39.34,247.13,42.2,246.2,44.67z"/>
	</g>
	<g>
		<path class="st0" d="M19.64,23.65c-6.45-0.1-12.87,1.92-18.08,5.67L0,30.44l18.38,18.37l18.94-18.96
			C32.36,25.95,26.09,23.75,19.64,23.65z"/>
		<path class="st0" d="M42.71,70.45c3.66-5.09,5.61-11.11,5.66-17.43c0.05-6.84-2.14-13.23-6.32-18.47L23.09,53.52L41.58,72h0.01
			L42.71,70.45z"/>
		<path class="st0" d="M0,0v19.94c5.68-2.96,12.05-4.54,18.53-4.5c8.98,0.05,17.64,3.17,24.4,8.79l0.01,0.01l10.49-10.5l-3.69-3.69
			l18.1-6.06L61.8,22.12l-3.68-3.67L47.65,28.93l0.04,0.05c2.9,3.45,5.14,7.35,6.66,11.59c1.52,4.25,2.28,8.75,2.24,13.37
			c-0.03,4.43-0.78,8.78-2.24,12.91c-0.62,1.77-1.38,3.49-2.24,5.14h19.82V0H0z"/>
	</g>
	<g>
		<path class="st0" d="M92.17,69.69h-4.69l-0.97,2.21h-1.3l4-8.83h1.25l4.01,8.83h-1.32L92.17,69.69z M91.73,68.68l-1.9-4.32
			l-1.9,4.32H91.73z"/>
		<path class="st0" d="M95.78,63.07h3.72c2.84,0,4.77,1.79,4.77,4.41c0,2.62-1.93,4.41-4.77,4.41h-3.72V63.07z M99.43,70.8
			c2.18,0,3.58-1.34,3.58-3.32c0-1.98-1.4-3.32-3.58-3.32h-2.38v6.63H99.43z"/>
		<path class="st0" d="M113.59,63.07l-3.87,8.83h-1.25l-3.88-8.83h1.36l3.18,7.25l3.2-7.25H113.59z"/>
		<path class="st0" d="M113.91,67.49c0-2.59,1.99-4.51,4.7-4.51c2.69,0,4.68,1.92,4.68,4.51c0,2.6-1.99,4.51-4.68,4.51
			C115.9,72,113.91,70.07,113.91,67.49z M122.03,67.49c0-1.96-1.46-3.39-3.42-3.39c-1.98,0-3.44,1.44-3.44,3.39
			c0,1.95,1.46,3.39,3.44,3.39C120.56,70.88,122.03,69.44,122.03,67.49z"/>
		<path class="st0" d="M131.33,67.44h1.21v3.44c-0.88,0.74-2.11,1.12-3.34,1.12c-2.71,0-4.7-1.9-4.7-4.51
			c0-2.61,1.99-4.51,4.73-4.51c1.4,0,2.59,0.47,3.39,1.36l-0.78,0.78c-0.73-0.71-1.56-1.02-2.56-1.02c-2.04,0-3.52,1.42-3.52,3.39
			c0,1.94,1.48,3.39,3.51,3.39c0.74,0,1.44-0.16,2.07-0.57V67.44z"/>
		<path class="st0" d="M140.58,69.69h-4.69l-0.97,2.21h-1.3l4-8.83h1.25l4.01,8.83h-1.32L140.58,69.69z M140.14,68.68l-1.9-4.32
			l-1.9,4.32H140.14z"/>
		<path class="st0" d="M144.19,63.07h3.72c2.84,0,4.77,1.79,4.77,4.41c0,2.62-1.93,4.41-4.77,4.41h-3.72V63.07z M147.83,70.8
			c2.18,0,3.58-1.34,3.58-3.32c0-1.98-1.4-3.32-3.58-3.32h-2.38v6.63H147.83z"/>
		<path class="st0" d="M153.89,67.49c0-2.59,1.99-4.51,4.7-4.51c2.69,0,4.68,1.92,4.68,4.51c0,2.6-1.99,4.51-4.68,4.51
			C155.88,72,153.89,70.07,153.89,67.49z M162.01,67.49c0-1.96-1.46-3.39-3.42-3.39c-1.98,0-3.44,1.44-3.44,3.39
			c0,1.95,1.46,3.39,3.44,3.39C160.54,70.88,162.01,69.44,162.01,67.49z"/>
		<path class="st0" d="M164.39,70.89l0.47-0.98c0.66,0.59,1.78,1.02,2.91,1.02c1.53,0,2.18-0.59,2.18-1.36
			c0-2.16-5.35-0.79-5.35-4.07c0-1.36,1.06-2.52,3.38-2.52c1.03,0,2.11,0.28,2.84,0.78l-0.42,1.01c-0.77-0.49-1.64-0.72-2.42-0.72
			c-1.5,0-2.14,0.63-2.14,1.4c0,2.16,5.35,0.81,5.35,4.05c0,1.35-1.08,2.51-3.42,2.51C166.42,72,165.1,71.55,164.39,70.89z"/>
		<path class="st0" d="M182.04,69.69h-4.69l-0.97,2.21h-1.3l4-8.83h1.25l4.01,8.83h-1.32L182.04,69.69z M181.6,68.68l-1.9-4.32
			l-1.9,4.32H181.6z"/>
		<path class="st0" d="M184.85,70.89l0.47-0.98c0.66,0.59,1.78,1.02,2.91,1.02c1.53,0,2.18-0.59,2.18-1.36
			c0-2.16-5.35-0.79-5.35-4.07c0-1.36,1.06-2.52,3.38-2.52c1.03,0,2.11,0.28,2.84,0.78l-0.42,1.01c-0.77-0.49-1.64-0.72-2.42-0.72
			c-1.5,0-2.14,0.63-2.14,1.4c0,2.16,5.35,0.81,5.35,4.05c0,1.35-1.08,2.51-3.42,2.51C186.88,72,185.55,71.55,184.85,70.89z"/>
		<path class="st0" d="M192.68,70.89l0.47-0.98c0.66,0.59,1.78,1.02,2.91,1.02c1.53,0,2.18-0.59,2.18-1.36
			c0-2.16-5.35-0.79-5.35-4.07c0-1.36,1.06-2.52,3.38-2.52c1.03,0,2.11,0.28,2.84,0.78l-0.42,1.01c-0.77-0.49-1.64-0.72-2.42-0.72
			c-1.5,0-2.14,0.63-2.14,1.4c0,2.16,5.35,0.81,5.35,4.05c0,1.35-1.08,2.51-3.42,2.51C194.71,72,193.38,71.55,192.68,70.89z"/>
		<path class="st0" d="M200.6,67.49c0-2.59,1.99-4.51,4.7-4.51c2.69,0,4.68,1.92,4.68,4.51c0,2.6-1.99,4.51-4.68,4.51
			C202.59,72,200.6,70.07,200.6,67.49z M208.72,67.49c0-1.96-1.46-3.39-3.42-3.39c-1.98,0-3.44,1.44-3.44,3.39
			c0,1.95,1.46,3.39,3.44,3.39C207.26,70.88,208.72,69.44,208.72,67.49z"/>
		<path class="st0" d="M211.19,67.49c0-2.61,1.99-4.51,4.68-4.51c1.36,0,2.55,0.47,3.35,1.37l-0.82,0.79
			c-0.68-0.72-1.51-1.05-2.48-1.05c-1.99,0-3.47,1.44-3.47,3.39c0,1.95,1.48,3.39,3.47,3.39c0.97,0,1.8-0.34,2.48-1.06l0.82,0.8
			c-0.81,0.91-1.99,1.39-3.37,1.39C213.18,72,211.19,70.1,211.19,67.49z"/>
		<path class="st0" d="M221.03,63.07h1.26v8.83h-1.26V63.07z"/>
		<path class="st0" d="M230.56,69.69h-4.69l-0.97,2.21h-1.3l4-8.83h1.25l4.01,8.83h-1.32L230.56,69.69z M230.12,68.68l-1.9-4.32
			l-1.9,4.32H230.12z"/>
		<path class="st0" d="M234.17,63.07h3.72c2.84,0,4.77,1.79,4.77,4.41c0,2.62-1.93,4.41-4.77,4.41h-3.72V63.07z M237.81,70.8
			c2.18,0,3.58-1.34,3.58-3.32c0-1.98-1.4-3.32-3.58-3.32h-2.38v6.63H237.81z"/>
		<path class="st0" d="M243.87,67.49c0-2.59,1.99-4.51,4.7-4.51c2.69,0,4.68,1.92,4.68,4.51c0,2.6-1.99,4.51-4.68,4.51
			C245.86,72,243.87,70.07,243.87,67.49z M251.99,67.49c0-1.96-1.46-3.39-3.42-3.39c-1.98,0-3.44,1.44-3.44,3.39
			c0,1.95,1.46,3.39,3.44,3.39C250.53,70.88,251.99,69.44,251.99,67.49z"/>
		<path class="st0" d="M254.38,70.89l0.47-0.98c0.66,0.59,1.78,1.02,2.91,1.02c1.53,0,2.18-0.59,2.18-1.36
			c0-2.16-5.35-0.79-5.35-4.07c0-1.36,1.06-2.52,3.38-2.52c1.03,0,2.11,0.28,2.84,0.78l-0.42,1.01c-0.77-0.49-1.64-0.72-2.42-0.72
			c-1.5,0-2.14,0.63-2.14,1.4c0,2.16,5.35,0.81,5.35,4.05c0,1.35-1.08,2.51-3.42,2.51C256.41,72,255.08,71.55,254.38,70.89z"/>
	</g>
</g>
</svg>
