<?xml version="1.0" encoding="utf-8"?>
<!-- Generator: Adobe Illustrator 24.0.1, SVG Export Plug-In . SVG Version: 6.00 Build 0)  -->
<svg version="1.1" id="Layer_1" xmlns="http://www.w3.org/2000/svg" xmlns:xlink="http://www.w3.org/1999/xlink" x="0px" y="0px"
	 viewBox="0 0 504 144" style="enable-background:new 0 0 504 144;" xml:space="preserve">
<style type="text/css">
	.st0{fill:#231F20;}
</style>
<g>
	<g>
		<path class="st0" d="M149.3,29.8V39c0,2.4,0.9,4.6,3.4,5.1c1.4,0.2,1.8,0.5,1.8,1.2c0,0.6-0.5,1-1.5,1c-1.5,0-6-0.6-8-0.6
			s-6.6,0.6-8,0.6c-0.9,0-1.5-0.4-1.5-1c0-0.7,0.4-1,1.8-1.2c2.5-0.4,3.5-2.6,3.5-5.1V7.3c0-2.4-1-4.6-3.5-5.1
			c-1.4-0.2-1.8-0.5-1.8-1.2c0-0.6,0.5-1,1.5-1c1.5,0,6.1,0.6,8,0.6c6.1,0,12.1-0.6,16.3-0.6c8.6,0,15,4.1,15,12.6
			c0,7.1-4.8,11.6-11.3,13.5c-0.9,0.2-1.8,0.5-2.7,0.7c1.5,0.4,3.5,1.6,5.7,4.9c3.5,5.5,7.2,11.2,12.9,12c0.7,0.1,1.2,0.4,1.2,1
			c0,0.9-1.5,1.6-5.5,1.6c-4,0-9.3-0.5-12.2-5.1c-4.7-7.3-6.9-12.3-9.9-13.6c-1.4,0.1-2.7,0.1-3.8,0.1
			C149.5,27.7,149.3,28.5,149.3,29.8z M149.3,22.3c0,1.6,0.4,2,2,2c3.7,0,4.9-0.1,8.3-1c4.1-1.1,7.8-4.4,7.8-11
			c0-5.8-3.4-9.4-11.1-9.4c-5.5,0-7,1.2-7,3V22.3z"/>
		<path class="st0" d="M200.4,29.7v11c0,1.4,1.3,2.3,2.6,2.3c0.5,0,7.4,0.3,11-0.6c3.5-0.9,6.1-3.2,8.6-7.3c0.5-0.9,0.9-1.3,1.5-1.3
			c0.5,0,0.9,0.4,0.9,1c0,0.9-2.6,6.8-2.6,9.4c0,1.4-0.6,2.1-1.9,2.1c-1.4,0-8.1-0.6-25-0.6c-1.6,0-4.9,0.5-6.2,0.5
			c-0.8,0-1.3-0.2-1.3-0.9c0-0.5,0.2-0.7,1.5-1c2.1-0.4,2.9-2.3,2.9-4.3V13.2c0-2.1-0.9-3.8-2.9-4.3c-1.3-0.2-1.5-0.4-1.5-1
			c0-0.7,0.5-1,1.3-1c0.8,0,4.4,0.3,9.7,0.3c16.9,0,18.1-0.4,19.5-0.4c1.3,0,1.9,0.7,1.9,2.1c0,2.7,1.3,7.3,1.3,8.2
			c0,0.7-0.4,1-0.9,1c-0.7,0-1-0.6-1.4-1.5c-2.3-4.4-4.6-6.9-13.7-6.9c-4.7,0-5.4,1-5.4,2.6V23c0,1.4,0.4,1.7,1.7,1.7
			c3.1,0,7.5,0.5,10.6-1.2c2.3-1.3,2.8-3.4,3.6-3.4c0.5,0,0.9,0.3,0.9,0.9c0,0.5-0.6,1.9-0.6,4.5c0,2.6,0.8,5.1,0.8,5.9
			c0,0.7-0.4,1-0.8,1c-0.9,0-1.6-2.4-3.3-3.5c-1.7-1.2-2.9-0.9-5-0.9C201,28.1,200.4,28.1,200.4,29.7z"/>
		<path class="st0" d="M264.7,14c-0.2-2.4-1-4.5-3.6-5.1c-1.3-0.3-1.5-0.5-1.5-1c0-0.5,0.5-0.8,1.3-0.8c1.5,0,4.3,0.4,5.7,0.4
			c1.4,0,4.1-0.4,5.7-0.4c0.8,0,1.2,0.2,1.2,0.8c0,0.4-0.1,0.7-1.5,1c-2.6,0.6-3.3,2.7-3.6,5.1c-0.4,4.5-0.3,26.9-0.3,29.6
			c0,1.2-0.6,3.4-2.5,3.4c-1.3,0-1.9-0.8-2.8-1.8c-1.3-1.5-25.3-29.4-25.3-29.4s0.1,19.2,0.4,23.7c0.2,2.4,1,4.5,3.5,5.1
			c1.3,0.3,1.5,0.5,1.5,1c0,0.6-0.5,0.9-1.2,0.9c-1.6,0-4.3-0.5-5.7-0.5c-1.4,0-4.1,0.5-5.7,0.5c-0.7,0-1.2-0.2-1.2-0.9
			c0-0.4,0.2-0.7,1.5-1c2.6-0.5,3.3-2.7,3.5-5.1c0.4-4.5,0.2-24.7,0.2-26.8s-0.8-3.3-2.9-3.7c-1.2-0.2-1.5-0.5-1.5-1
			c0-0.5,0.4-0.9,1.2-0.9c1.2,0,3.6,0.5,4.7,0.5c2.3,0,3.9-0.2,5.1-0.2c1.2,0,1.6,0.3,2.7,2.1C245.9,13,265.1,35,265.1,35
			S265.1,18.5,264.7,14z"/>
		<path class="st0" d="M298,8.2c1,2.6,10.1,23.6,14.1,31.7c1,2.2,1.9,4,4.1,4.4c1.3,0.2,1.5,0.4,1.5,1c0,0.7-0.5,0.9-1.6,0.9
			c-1.3,0-4.8-0.2-8.9-0.2c-1.8,0-4.1,0.1-5.1,0.1c-0.7,0-1-0.3-1-0.7c0-0.4,0.2-0.7,0.9-0.9c0.7-0.1,1.8-0.5,1.8-1.3
			c0-0.5-1.1-3.7-2.6-7.4h-16c-1,3-1.8,5.5-1.8,6.5c0,1.4,0.9,2.1,2.1,2.3c0.6,0.1,0.9,0.4,0.9,0.9c0,0.4-0.4,0.7-1,0.7
			c-1,0-2.7-0.1-4.5-0.1c-4.1,0-5.2,0.2-6.8,0.2c-0.8,0-1.3-0.2-1.3-0.9c0-0.6,0.2-0.7,1.5-1c2.1-0.4,2.9-1.6,4-3.7
			c2.1-4.1,8.5-18,15.3-32.4c0.5-1.2,0.9-1.8,2.3-1.8C297,6.5,297.5,7.1,298,8.2z M286.3,32.6h13.5c-2.6-6.6-5.7-13.8-6.2-14.7
			c-0.2-0.4-0.3-0.5-0.6-0.5c-0.3,0-0.5,0.3-0.7,0.6C290.7,21.4,288.3,27.4,286.3,32.6z"/>
		<path class="st0" d="M327.3,12.2c0-1.9-0.9-2.2-2.4-2.2c-2.9,0-6.7,2.3-9,6.7c-0.4,0.8-0.7,1.5-1.5,1.5c-0.4,0-0.9-0.4-0.9-1
			c0-0.9,1.3-5.5,1.3-8.2c0-1.4,0.6-2.1,1.9-2.1c1.2,0,10.3,0.7,14.6,0.7c4.2,0,13.3-0.7,14.5-0.7c1.3,0,1.9,0.7,1.9,2.1
			c0,2.7,1.3,7.3,1.3,8.2c0,0.7-0.4,1-0.9,1c-0.8,0-1-0.7-1.5-1.5c-2.3-4.4-6.1-6.7-9-6.7c-1.6,0-2.4,0.2-2.4,2.2v27.9
			c0,2.1,0.8,3.9,2.9,4.3c1.2,0.2,1.5,0.4,1.5,1c0,0.5-0.4,0.9-1.2,0.9c-1.2,0-5.4-0.5-7.1-0.5c-1.7,0-5.9,0.5-7.2,0.5
			c-0.7,0-1.2-0.4-1.2-0.9c0-0.6,0.3-0.9,1.5-1c2.1-0.4,2.9-2.3,2.9-4.3V12.2z"/>
		<path class="st0" d="M374.9,6.5c13.1,0,22.8,7.6,22.8,20.3c0,12.7-9.7,20.2-22.8,20.2c-13,0-22.7-7.4-22.7-20.2
			C352.2,14,361.8,6.5,374.9,6.5z M374.9,44c7.6,0,13.8-6.9,13.8-17.4s-6.2-17.4-13.8-17.4c-7.5,0-13.8,6.9-13.8,17.4
			S367.3,44,374.9,44z"/>
		<path class="st0" d="M149.3,99.9c0,2.4,0.9,4.6,3.4,5.1c1.4,0.2,1.8,0.5,1.8,1.2c0,0.6-0.5,1-1.5,1c-1.5,0-6-0.6-8-0.6
			s-6.6,0.6-8,0.6c-0.9,0-1.5-0.4-1.5-1c0-0.7,0.4-1,1.8-1.2c2.5-0.4,3.5-2.6,3.5-5.1V68.2c0-2.4-1-4.6-3.5-5.1
			c-1.6-0.3-1.8-0.5-1.8-1.2c0-0.9,0.6-1.1,1.5-1.1c0.9,0,5.2,0.3,11.4,0.3c19.8,0,21.8-0.4,23.4-0.4c1.5,0,2.2,0.9,2.2,2.5
			c0,3.1,1.5,8.6,1.5,9.6c0,0.8-0.5,1.2-1,1.2c-0.9,0-1.2-0.7-1.7-1.7c-2.7-5.2-5.9-8.5-16.6-8.5c-5.5,0-7,1.2-7,3V80
			c0,1.6,0.4,2,2,2c3.7,0,7.6,0.4,11.3-1.6c2.7-1.6,3.3-4,4.3-4c0.5,0,1,0.4,1,1c0,0.7-0.7,2.3-0.7,5.4c0,3,0.9,5.9,0.9,6.9
			c0,0.8-0.4,1.3-1,1.3c-1,0-1.8-2.8-3.8-4.1c-2-1.3-3.4-1.8-5.9-1.8c-6.9,0-8,0.6-8,2.4V99.9z"/>
		<path class="st0" d="M196.8,69.2c1,2.6,10.1,23.6,14.1,31.7c1,2.2,1.9,4,4.1,4.4c1.3,0.2,1.5,0.4,1.5,1c0,0.7-0.5,0.9-1.6,0.9
			c-1.3,0-4.8-0.2-8.9-0.2c-1.8,0-4.1,0.1-5.1,0.1c-0.7,0-1-0.3-1-0.7c0-0.4,0.2-0.7,0.9-0.9c0.7-0.1,1.8-0.5,1.8-1.3
			c0-0.5-1.1-3.7-2.6-7.4h-16c-1,3-1.8,5.5-1.8,6.5c0,1.4,0.9,2.1,2.1,2.3c0.6,0.1,0.9,0.4,0.9,0.9c0,0.4-0.4,0.7-1,0.7
			c-1,0-2.7-0.1-4.5-0.1c-4.1,0-5.2,0.2-6.8,0.2c-0.8,0-1.3-0.2-1.3-0.9c0-0.6,0.2-0.7,1.5-1c2.1-0.4,2.9-1.6,4-3.7
			c2.1-4.1,8.5-18,15.3-32.4c0.5-1.2,0.9-1.8,2.3-1.8C195.9,67.4,196.3,68.1,196.8,69.2z M185.1,93.5h13.5
			c-2.6-6.6-5.7-13.8-6.2-14.7c-0.2-0.4-0.3-0.5-0.6-0.5s-0.5,0.3-0.7,0.6C189.5,82.4,187.1,88.4,185.1,93.5z"/>
		<path class="st0" d="M254.1,70.1c0,2.7,0.7,7.6,0.7,8.4c0,0.7-0.5,0.9-1,0.9c-0.8,0-1.2-1-1.6-1.8c-2.3-4.4-5.1-7-11-7
			c-6.9,0-13.6,3.9-13.6,18.5c0,11.4,7.2,15.4,13.7,15.4c10.5,0,14.3-8,15-8c0.7,0,1.8,0.7,1.8,1.6c0,0.9-5.2,9.9-19.6,9.9
			c-8.6,0-21.2-5-21.2-19.1c0-16,13.8-21.3,24.2-21.3c5,0,7.1,1.2,8.4,1.2c1.3,0,2.3-0.5,3-0.5C253.6,68.1,254.1,68.7,254.1,70.1z"
			/>
		<path class="st0" d="M299.1,70.1c0,2.7,0.7,7.6,0.7,8.4c0,0.7-0.5,0.9-1,0.9c-0.8,0-1.2-1-1.6-1.8c-2.3-4.4-5.1-7-11-7
			c-6.9,0-13.6,3.9-13.6,18.5c0,11.4,7.2,15.4,13.7,15.4c10.5,0,14.3-8,15-8s1.8,0.7,1.8,1.6c0,0.9-5.2,9.9-19.6,9.9
			c-8.6,0-21.2-5-21.2-19.1c0-16,13.8-21.3,24.2-21.3c5,0,7.1,1.2,8.4,1.2c1.3,0,2.3-0.5,3-0.5S299.1,68.7,299.1,70.1z"/>
		<path class="st0" d="M313.1,74.1c0-2.1-0.9-4-2.9-4.3c-1.2-0.2-1.5-0.4-1.5-1c0-0.5,0.5-0.9,1.2-0.9c1.3,0,5.5,0.5,7.2,0.5
			c1.6,0,5.8-0.5,7.1-0.5c0.8,0,1.2,0.4,1.2,0.9c0,0.6-0.3,0.9-1.5,1c-2.1,0.4-2.9,2.3-2.9,4.3V101c0,2.1,0.8,3.9,2.9,4.3
			c1.2,0.2,1.5,0.4,1.5,1c0,0.5-0.4,0.9-1.2,0.9c-1.2,0-5.4-0.5-7.1-0.5c-1.7,0-5.9,0.5-7.2,0.5c-0.7,0-1.2-0.4-1.2-0.9
			c0-0.6,0.3-0.9,1.5-1c2.1-0.4,2.9-2.3,2.9-4.3V74.1z"/>
		<path class="st0" d="M354.5,67.4c13.1,0,22.8,7.6,22.8,20.3s-9.7,20.2-22.8,20.2c-13,0-22.7-7.4-22.7-20.2
			C331.8,74.9,341.4,67.4,354.5,67.4z M354.5,104.9c7.6,0,13.8-6.9,13.8-17.4s-6.2-17.4-13.8-17.4c-7.5,0-13.8,6.9-13.8,17.4
			S346.9,104.9,354.5,104.9z"/>
		<path class="st0" d="M394.8,102.1c0,1.4,1.3,2.3,2.6,2.3c3.1,0,5.2,0,9.1-1.1c3.6-1,5.9-3.2,8.4-7.3c0.5-0.9,0.9-1.3,1.5-1.3
			c0.4,0,0.8,0.4,0.8,1c0,0.9-2.6,6.8-2.6,9.4c0,1.4-0.6,2.1-1.9,2.1c-1.4,0-5.6-0.6-22.5-0.6c-1.6,0-5.2,0.5-6.5,0.5
			c-0.8,0-1.3-0.2-1.3-0.9c0-0.5,0.2-0.7,1.5-1c2.1-0.4,2.9-2.3,2.9-4.3V74.1c0-2.1-0.9-3.9-2.9-4.3c-1.2-0.2-1.5-0.5-1.5-1
			c0-0.5,0.5-0.9,1.2-0.9c1.3,0,5.5,0.5,7.2,0.5c1.6,0,5.8-0.5,7.1-0.5c0.8,0,1.2,0.4,1.2,0.9c0,0.5-0.3,0.8-1.5,1
			c-2.1,0.4-2.9,2.2-2.9,4.3V102.1z"/>
		<path class="st0" d="M434.3,102.1c0,1.4,1.3,2.3,2.6,2.3c3.1,0,5.2,0,9.1-1.1c3.6-1,5.9-3.2,8.4-7.3c0.5-0.9,0.9-1.3,1.5-1.3
			c0.4,0,0.8,0.4,0.8,1c0,0.9-2.6,6.8-2.6,9.4c0,1.4-0.6,2.1-1.9,2.1c-1.4,0-5.6-0.6-22.5-0.6c-1.6,0-5.2,0.5-6.5,0.5
			c-0.8,0-1.3-0.2-1.3-0.9c0-0.5,0.2-0.7,1.5-1c2.1-0.4,2.9-2.3,2.9-4.3V74.1c0-2.1-0.9-3.9-2.9-4.3c-1.2-0.2-1.5-0.5-1.5-1
			c0-0.5,0.5-0.9,1.2-0.9c1.3,0,5.5,0.5,7.2,0.5c1.6,0,5.8-0.5,7.1-0.5c0.8,0,1.2,0.4,1.2,0.9c0,0.5-0.3,0.8-1.5,1
			c-2.1,0.4-2.9,2.2-2.9,4.3V102.1z"/>
		<path class="st0" d="M484.3,69.2c1,2.6,10.1,23.6,14.1,31.7c1,2.2,1.9,4,4.1,4.4c1.3,0.2,1.5,0.4,1.5,1c0,0.7-0.5,0.9-1.6,0.9
			c-1.3,0-4.8-0.2-8.9-0.2c-1.8,0-4.1,0.1-5.1,0.1c-0.7,0-1-0.3-1-0.7c0-0.4,0.2-0.7,0.9-0.9c0.7-0.1,1.8-0.5,1.8-1.3
			c0-0.5-1.1-3.7-2.6-7.4h-16c-1,3-1.8,5.5-1.8,6.5c0,1.4,0.9,2.1,2.1,2.3c0.6,0.1,0.9,0.4,0.9,0.9c0,0.4-0.4,0.7-1,0.7
			c-1,0-2.7-0.1-4.5-0.1c-4.1,0-5.2,0.2-6.8,0.2c-0.8,0-1.3-0.2-1.3-0.9c0-0.6,0.2-0.7,1.5-1c2.1-0.4,2.9-1.6,4-3.7
			c2.1-4.1,8.5-18,15.3-32.4c0.5-1.2,0.9-1.8,2.3-1.8C483.4,67.4,483.8,68.1,484.3,69.2z M472.7,93.5h13.5
			c-2.6-6.6-5.7-13.8-6.2-14.7c-0.2-0.4-0.3-0.5-0.6-0.5c-0.3,0-0.5,0.3-0.7,0.6C477.1,82.4,474.7,88.4,472.7,93.5z"/>
	</g>
	<g>
		<path class="st0" d="M334.8,138.1H323l-2.5,5.7h-2.3l9.7-21.2h2.2l9.7,21.2h-2.4L334.8,138.1z M334,136.3l-5.1-11.4l-5.1,11.4H334
			z"/>
		<path class="st0" d="M343.2,122.6h8.6c6.8,0,11.4,4.4,11.4,10.6c0,6.2-4.6,10.6-11.4,10.6h-8.6V122.6z M351.7,141.9
			c5.6,0,9.3-3.6,9.3-8.7s-3.6-8.7-9.3-8.7h-6.3v17.3H351.7z"/>
		<path class="st0" d="M385.2,122.6l-9.4,21.2h-2.2l-9.4-21.2h2.4l8.1,18.4l8.2-18.4H385.2z"/>
		<path class="st0" d="M386.2,133.2c0-6.2,4.7-10.8,11.1-10.8c6.4,0,11.1,4.6,11.1,10.8s-4.8,10.8-11.1,10.8
			C390.9,144,386.2,139.4,386.2,133.2z M406.2,133.2c0-5.1-3.8-8.8-8.9-8.8c-5.1,0-8.9,3.7-8.9,8.8c0,5.1,3.8,8.8,8.9,8.8
			C402.4,142,406.2,138.3,406.2,133.2z"/>
		<path class="st0" d="M428.4,133.2h2.2v8.1c-2,1.8-4.8,2.7-7.8,2.7c-6.5,0-11.2-4.6-11.2-10.8s4.7-10.8,11.2-10.8
			c3.2,0,6,1,7.9,3.1l-1.4,1.4c-1.8-1.8-3.9-2.5-6.4-2.5c-5.2,0-9.1,3.7-9.1,8.8c0,5,3.8,8.8,9.1,8.8c2,0,3.9-0.5,5.5-1.6V133.2z"/>
		<path class="st0" d="M450.2,138.1h-11.8l-2.5,5.7h-2.3l9.7-21.2h2.2l9.7,21.2h-2.4L450.2,138.1z M449.4,136.3l-5.1-11.4l-5.1,11.4
			H449.4z"/>
		<path class="st0" d="M458.6,122.6h8.6c6.8,0,11.4,4.4,11.4,10.6c0,6.2-4.6,10.6-11.4,10.6h-8.6V122.6z M467.1,141.9
			c5.6,0,9.3-3.6,9.3-8.7s-3.6-8.7-9.3-8.7h-6.3v17.3H467.1z"/>
		<path class="st0" d="M481.7,133.2c0-6.2,4.7-10.8,11.1-10.8c6.4,0,11.1,4.6,11.1,10.8s-4.8,10.8-11.1,10.8
			C486.5,144,481.7,139.4,481.7,133.2z M501.8,133.2c0-5.1-3.8-8.8-8.9-8.8c-5.1,0-8.9,3.7-8.9,8.8c0,5.1,3.8,8.8,8.9,8.8
			C498,142,501.8,138.3,501.8,133.2z"/>
	</g>
	<g>
		<path class="st0" d="M29.4,35.5c-9.7-0.1-19.3,2.9-27.1,8.5L0,45.6l27.5,27.5l28.4-28.4C48.5,38.9,39.1,35.6,29.4,35.5z"/>
		<path class="st0" d="M64,105.6c5.5-7.6,8.4-16.7,8.5-26.1c0.1-10.3-3.2-19.8-9.5-27.7L34.6,80.2l27.7,27.7h0L64,105.6z"/>
		<path class="st0" d="M0,0v29.9c8.5-4.4,18.1-6.8,27.8-6.7c13.5,0.1,26.4,4.7,36.6,13.2l0,0l15.7-15.7l-5.5-5.5L101.7,6l-9,27.2
			l-5.5-5.5L71.4,43.4l0.1,0.1c4.4,5.2,7.7,11,10,17.4c2.3,6.4,3.4,13.1,3.4,20c0,6.6-1.2,13.2-3.4,19.4c-0.9,2.7-2.1,5.2-3.4,7.7
			h29.7V0H0z"/>
	</g>
</g>
</svg>
